<?xml version="1.0" encoding="UTF-8" standalone="no"?>
<svg
   xmlns:dc="http://purl.org/dc/elements/1.1/"
   xmlns:cc="http://creativecommons.org/ns#"
   xmlns:rdf="http://www.w3.org/1999/02/22-rdf-syntax-ns#"
   xmlns:svg="http://www.w3.org/2000/svg"
   xmlns="http://www.w3.org/2000/svg"
   viewBox="0 0 666.66669 666.66669"
   height="666.66669"
   width="666.66669"
   xml:space="preserve"
   id="svg2"
   version="1.1"><metadata
     id="metadata8"><rdf:RDF><cc:Work
         rdf:about=""><dc:format>image/svg+xml</dc:format><dc:type
           rdf:resource="http://purl.org/dc/dcmitype/StillImage" /></cc:Work></rdf:RDF></metadata><defs
     id="defs6"><clipPath
       id="clipPath18"
       clipPathUnits="userSpaceOnUse"><path
         id="path16"
         d="M 0,500 H 500 V 0 H 0 Z" /></clipPath></defs><g
     transform="matrix(1.3333333,0,0,-1.3333333,0,666.66667)"
     id="g10"><g
       id="g12"><g
         clip-path="url(#clipPath18)"
         id="g14"><g
           transform="translate(221.666,124.334)"
           id="g20"><path
             id="path22"
             style="fill:#ffcd94;fill-opacity:1;fill-rule:nonzero;stroke:none"
             d="M 0,0 C 0,0 9.334,-25.334 6.667,-31.334 4,-37.334 64,-74.667 64,-74.667 l 34.667,52 c 0,0 -11.333,36.666 -6,39.333 C 98,19.333 0,0 0,0" /></g><g
           transform="translate(89.5977,-5.0771)"
           id="g24"><path 
             id="path26" 
             style="fill:#BCC6D6;fill-opacity:1;fill-rule:nonzero;stroke:none"
             d="m 0,0 362.069,-16.59 c 0,0 10.666,130.666 -130.667,125.999 C 211.403,94.075 172.734,82.744 138.735,98.077 106.069,106.744 2.598,95.919 0,0" /></g><g
           transform="translate(134.334,210.333)"
           id="g28"><path
             id="path30"
             style="fill:#ffcd94;fill-opacity:1;fill-rule:nonzero;stroke:none"
             d="m 0,0 c 0,0 -38,64.667 -50.667,-3.333 10.667,-40.667 60,-62 60,-62 L 30,-38.666 Z" /></g><g
           transform="translate(139,153)"
           id="g32"><path
             id="path34"
             style="fill:#ffcd94;fill-opacity:1;fill-rule:nonzero;stroke:none"
             d="m 0,0 c 0,0 1,-54 129,-35 105,-1 98,63 98,63 0,0 -24.5,175.25 -37.25,213.25 C 179.25,262 170,272.5 170,272.5 c 0,0 -24.834,28.001 -83.333,27.501 -83,-6 -126.5,-77.834 -128,-101.334 C -42.833,175.167 -16.5,41 0,0" /></g><g
           transform="translate(119,216)"
           id="g36"><path
             id="path38"
             style="fill:#020101;fill-opacity:1;fill-rule:nonzero;stroke:none"
             d="m 0,0 c 0,0 -96,202 84,237 85,17 126,-8 131,-45 -14,12 -51,20 -51,20 0,0 9,-16 9,-27 -11,9 -63,29 -72,23 15,-5 34.25,-22.5 34,-24.5 C 112.25,190 1,183.001 -2,126.334 -4.333,96.667 17.333,11 17,8.334 16.667,5.668 17,-2.001 0,0" /></g><g
           transform="translate(249.0015,341)"
           id="g40"><path
             id="path42"
             style="fill:#020101;fill-opacity:1;fill-rule:nonzero;stroke:none"
             d="m 0,0 c 0,0 -1.333,35.334 -71.333,-1.333 -16.667,-22 4,-27.333 4,-27.333 0,0 21.332,18.666 35.332,21.332 C -17.685,-1.512 -1.168,-2.044 0,0" /></g><g
           transform="translate(285.001,344.334)"
           id="g44"><path
             id="path46"
             style="fill:#020101;fill-opacity:1;fill-rule:nonzero;stroke:none"
             d="m 0,0 c 0,0 -19.332,22 27.334,37.333 24,4 32,-17.333 32,-17.333 0,0 2.666,-6 -34.667,-2.667 C 14,18 0,0 0,0" /></g><g
           transform="translate(270.335,312.334)"
           id="g48"><path
             id="path50"
             style="fill:none;stroke:#2d1519;stroke-width:3;stroke-linecap:butt;stroke-linejoin:miter;stroke-miterlimit:10;stroke-dasharray:none;stroke-opacity:1"
             d="M 0,0 C 0,0 23.665,-37.001 30.666,-45.333 51.665,-62.001 25.998,-75.001 25.998,-75.001" /></g><g
           transform="translate(231.5,267)"
           id="g52"><path
             id="path54"
             style="fill:#2d1519;fill-opacity:1;fill-rule:nonzero;stroke:none"
             d="M 0,0 C -1.334,2.916 2.625,8 4.834,8 7.043,8 9.25,4.75 8.834,1.334 8.834,-2.348 7,-4.5 4.834,-5.333 0.5,-4.5 0.416,-3.084 0,0" /></g><g
           transform="translate(316.25,286.75)"
           id="g56"><path
             id="path58"
             style="fill:#2d1519;fill-opacity:1;fill-rule:nonzero;stroke:none"
             d="M 0,0 C 0,3.313 0.765,6.75 3.25,6.75 5.735,6.75 9,3.313 9,0 9,-3.313 8.985,-6 6.5,-6 4.015,-6 0,-3.313 0,0" /></g><g
           transform="translate(308.334,181.667)"
           id="g60"><path
             id="path62"
             style="fill:none;stroke:#2d1519;stroke-width:3;stroke-linecap:butt;stroke-linejoin:miter;stroke-miterlimit:10;stroke-dasharray:none;stroke-opacity:1"
             d="M 0,0 C 0,0 -11.333,-6.666 -23.333,0.667" /></g></g></g></g></svg>